<?xml version="1.0" standalone="no"?>
<!DOCTYPE svg PUBLIC "-//W3C//DTD SVG 20010904//EN"
 "http://www.w3.org/TR/2001/REC-SVG-20010904/DTD/svg10.dtd">
<svg version="1.0" xmlns="http://www.w3.org/2000/svg"
 width="260.000000pt" height="260.000000pt" viewBox="0 0 260.000000 260.000000"
 preserveAspectRatio="xMidYMid meet">
<metadata>
Created by potrace 1.11, written by Peter Selinger 2001-2013
</metadata>
<g transform="translate(0.000000,260.000000) scale(0.100000,-0.100000)"
fill="#000000" stroke="none">
<path d="M1148 2255 c-470 -77 -817 -483 -816 -955 0 -255 86 -475 259 -663
136 -149 314 -248 522 -291 72 -15 263 -22 317 -12 14 3 36 7 50 10 339 61
635 320 744 652 34 103 41 160 41 314 -1 158 -24 265 -85 395 -134 285 -397
489 -700 545 -92 17 -242 19 -332 5z m312 -103 c310 -57 575 -293 669 -597 31
-97 36 -142 35 -280 -3 -194 -59 -357 -177 -510 -111 -145 -305 -272 -482
-314 -116 -28 -301 -26 -416 3 -160 41 -297 121 -412 240 -169 175 -250 388
-242 636 9 295 161 552 418 710 82 51 221 102 306 114 24 3 46 7 47 9 7 7 202
-2 254 -11z"/>
<path d="M906 1694 c-13 -12 -16 -38 -16 -119 0 -109 9 -135 50 -135 41 0 50
26 50 135 0 109 -9 135 -50 135 -10 0 -26 -7 -34 -16z"/>
<path d="M1576 1694 c-13 -12 -16 -38 -16 -119 0 -109 9 -135 50 -135 41 0 50
26 50 135 0 109 -9 135 -50 135 -10 0 -26 -7 -34 -16z"/>
<path d="M798 1158 c-40 -31 -10 -105 77 -191 112 -110 278 -165 470 -154 166
10 284 57 383 155 110 107 134 202 51 202 -22 0 -34 -12 -68 -63 -82 -126
-202 -187 -381 -193 -211 -7 -353 58 -446 203 -35 54 -56 64 -86 41z"/>
</g>
</svg>
